<svg width="110" height="35" viewBox="0 0 110 35" fill="none" xmlns="http://www.w3.org/2000/svg">
<path d="M47.9586 20.2L55.1949 30H50.0499L44.5724 22.4575L39.2611 30H34.3874L41.3961 20.2525L34.6149 10.7062H39.7599L44.7911 18.0387L49.7261 10.7062H54.5911L47.9586 20.2ZM54.339 20.3487C54.339 18.8146 54.5694 17.4233 55.0303 16.175C55.4969 14.9267 56.1532 13.8592 56.999 12.9725C57.8449 12.08 58.8569 11.3917 60.0353 10.9075C61.2136 10.4233 62.5174 10.1812 63.9465 10.1812C65.3757 10.1812 66.6794 10.4233 67.8578 10.9075C69.0361 11.3917 70.0482 12.08 70.894 12.9725C71.7399 13.8592 72.3932 14.9267 72.854 16.175C73.3207 17.4233 73.554 18.8146 73.554 20.3487C73.554 21.3696 73.449 22.3292 73.239 23.2275C73.029 24.1258 72.7257 24.9542 72.329 25.7125C71.9382 26.465 71.4569 27.1387 70.8853 27.7337C70.3194 28.3287 69.6807 28.8333 68.969 29.2475C68.2574 29.6617 67.4786 29.9767 66.6328 30.1925C65.7928 30.4142 64.8974 30.525 63.9465 30.525C62.9957 30.525 62.0974 30.4142 61.2515 30.1925C60.4057 29.9767 59.6269 29.6617 58.9153 29.2475C58.2036 28.8333 57.5649 28.3287 56.999 27.7337C56.4332 27.1387 55.9519 26.465 55.5553 25.7125C55.1644 24.9542 54.864 24.1258 54.654 23.2275C54.444 22.3292 54.339 21.3696 54.339 20.3487ZM58.749 20.3487C58.749 21.3346 58.8686 22.2183 59.1078 23C59.3469 23.7758 59.6882 24.435 60.1315 24.9775C60.5807 25.5142 61.1261 25.9254 61.7678 26.2112C62.4153 26.4971 63.1444 26.64 63.9553 26.64C64.7661 26.64 65.4924 26.4971 66.134 26.2112C66.7757 25.9254 67.3182 25.5142 67.7615 24.9775C68.2107 24.435 68.5519 23.7758 68.7853 23C69.0244 22.2183 69.144 21.3346 69.144 20.3487C69.144 19.3629 69.0244 18.4821 68.7853 17.7062C68.5519 16.9246 68.2107 16.2654 67.7615 15.7287C67.3182 15.1921 66.7757 14.7808 66.134 14.495C65.4924 14.2092 64.7661 14.0662 63.9553 14.0662C63.1444 14.0662 62.4153 14.2092 61.7678 14.495C61.1261 14.7808 60.5807 15.195 60.1315 15.7375C59.6882 16.2742 59.3469 16.9304 59.1078 17.7062C58.8686 18.4821 58.749 19.3629 58.749 20.3487ZM80.0353 30H75.6428V10.7062H80.0353V17.1287C80.2336 16.1312 80.5224 15.2358 80.9016 14.4425C81.2866 13.6492 81.7649 12.9754 82.3366 12.4212C82.9141 11.8671 83.5878 11.4442 84.3578 11.1525C85.1336 10.855 86.0116 10.7062 86.9916 10.7062H88.0066V14.8537H86.5628C85.3203 14.8537 84.282 14.9762 83.4478 15.2212C82.6136 15.4604 81.9428 15.825 81.4353 16.315C80.9278 16.805 80.5661 17.4233 80.3503 18.17C80.1403 18.9167 80.0353 19.7975 80.0353 20.8125V30ZM89.4952 17.6012C89.4952 16.4637 89.7052 15.4371 90.1252 14.5212C90.5452 13.6054 91.1431 12.8267 91.9189 12.185C92.7006 11.5375 93.6485 11.0417 94.7627 10.6975C95.8827 10.3533 97.1368 10.1812 98.5252 10.1812C99.9777 10.1812 101.276 10.3708 102.419 10.75C103.568 11.1292 104.539 11.6775 105.333 12.395C106.132 13.1125 106.741 13.9904 107.161 15.0287C107.581 16.0671 107.791 17.2425 107.791 18.555V30H103.399V24.9425C103.171 25.8058 102.827 26.5846 102.366 27.2787C101.911 27.9671 101.354 28.5533 100.695 29.0375C100.036 29.5158 99.2864 29.8833 98.4464 30.14C97.6122 30.3967 96.7052 30.525 95.7252 30.525C94.7043 30.525 93.7768 30.385 92.9427 30.105C92.1085 29.8308 91.3939 29.4429 90.7989 28.9412C90.2039 28.4396 89.7431 27.8358 89.4164 27.13C89.0897 26.4183 88.9264 25.6308 88.9264 24.7675C88.9264 23.8692 89.1043 23.0642 89.4602 22.3525C89.816 21.6408 90.3264 21.0371 90.9914 20.5412C91.6622 20.0454 92.4789 19.6662 93.4414 19.4037C94.4039 19.1354 95.4889 19.0012 96.6964 19.0012H103.399V18.555C103.399 17.8258 103.285 17.1725 103.058 16.595C102.83 16.0117 102.501 15.5158 102.069 15.1075C101.643 14.6992 101.124 14.3871 100.511 14.1712C99.8989 13.9554 99.2077 13.8475 98.4377 13.8475C97.656 13.8475 96.9764 13.935 96.3989 14.11C95.8272 14.285 95.3547 14.5358 94.9814 14.8625C94.6081 15.1892 94.331 15.5858 94.1502 16.0525C93.9693 16.5133 93.8789 17.0296 93.8789 17.6012H89.4952ZM96.9414 22.0812C95.7456 22.0812 94.8385 22.2825 94.2202 22.685C93.6077 23.0875 93.3014 23.6825 93.3014 24.47C93.3014 25.2983 93.6397 25.9342 94.3164 26.3775C94.9931 26.815 95.9643 27.0337 97.2302 27.0337C98.1285 27.0337 98.9539 26.9258 99.7064 26.71C100.465 26.4883 101.115 26.1821 101.658 25.7912C102.206 25.4004 102.632 24.9367 102.935 24.4C103.244 23.8575 103.399 23.2683 103.399 22.6325V22.0812H96.9414Z" fill="white"/>
<path d="M10.9841 0.000147422C11.8192 -0.00359709 12.6643 0.06318 13.4701 0.293467C14.9736 0.629849 16.3861 1.33694 17.5875 2.29616C18.2173 2.76609 18.7484 3.35336 19.2453 3.9581C19.7589 4.62961 20.227 5.34045 20.5847 6.10807C20.9261 6.90565 21.2207 7.72195 21.5371 8.53015C21.9896 9.75522 22.4733 10.9697 22.9133 12.1998C23.5487 13.7525 24.0986 15.3377 24.7127 16.8985C25.7626 19.6557 26.8011 22.4167 27.8584 25.1708C28.1174 25.9259 28.4501 26.6561 28.6835 27.4206C29.1517 29.0669 28.7703 30.9311 27.6762 32.2504C26.6726 33.5179 25.0723 34.3074 23.4507 34.2768C23.0107 33.2951 22.5139 32.3328 21.8798 31.4609C20.5522 29.5606 18.7547 27.9954 16.7069 26.9132C14.9399 25.9908 12.9876 25.4179 10.9978 25.2744C9.87562 25.1807 8.74842 25.2338 7.62371 25.2207C5.3356 25.2238 3.04812 25.2151 0.76001 25.2207C1.34109 23.6349 1.95649 22.0622 2.53944 20.4776C2.77974 19.8292 3.05249 19.1945 3.29341 18.5467C5.96411 18.5498 8.63482 18.5436 11.3049 18.5492C11.6713 18.5467 13.6534 18.6166 14.0154 18.5492C14.8935 18.4231 15.5041 18.4474 16.1389 17.8376C16.5636 16.9882 16.3885 16.9156 16.1389 15.2894C16.1545 14.8507 15.848 13.6308 15.7107 13.2133C15.2326 11.9352 14.8082 10.6377 14.3326 9.35893C13.5668 7.29508 12.8534 5.21313 12.0863 3.14991C11.7262 2.0977 11.3111 1.06359 10.9841 0.000147422Z" fill="#BFF747"/>
<path d="M9.85549 1.97229C9.87484 1.97853 9.91416 1.99164 9.93351 1.99788C10.0864 2.54333 10.3186 3.06319 10.4927 3.60178C11.1724 5.47341 11.8421 7.34878 12.5237 9.22042C11.8883 9.04318 11.3172 8.68183 10.8273 8.24747C9.62393 7.20649 8.97919 5.55828 9.17081 3.97748C9.1964 3.60302 9.38052 3.27164 9.50098 2.9234C9.61207 2.60386 9.74627 2.29307 9.85549 1.97229Z" fill="#BFF747"/>
<path d="M7.61329 7.87649C7.911 7.10387 8.19623 6.32626 8.50144 5.55676C8.67308 6.35996 8.96955 7.14444 9.45014 7.81533C10.249 8.9418 11.4642 9.77308 12.8155 10.0751C12.9422 10.3572 13.0315 10.6543 13.1413 10.9432C13.1806 11.035 13.1813 11.1361 13.1432 11.2284C12.7812 12.2482 12.4098 13.2642 12.0566 14.2865C11.2389 14.269 10.4088 14.0593 9.71477 13.6181C8.77169 13.0477 8.02522 12.1558 7.637 11.1236C7.30746 10.3011 7.25378 9.3849 7.39858 8.51617C7.43041 8.2915 7.53339 8.0868 7.61329 7.87649Z" fill="#BFF747"/>
<path d="M5.81917 12.5868C6.12001 11.8629 6.35281 11.1077 6.67737 10.3956C6.92827 11.753 7.67849 13.0193 8.77636 13.863C9.63206 14.5364 10.6931 14.9558 11.7835 15.0089C11.6037 15.5512 11.394 16.0829 11.2149 16.6252C11.1718 16.7295 11.1525 16.9036 10.9958 16.8668C9.49725 16.8699 7.99805 16.8643 6.49949 16.8686C6.41398 16.8643 6.32535 16.8749 6.24359 16.8449C5.46715 15.5961 5.215 13.9573 5.81917 12.5868Z" fill="#BFF747"/>
<path d="M4.19287 16.868C4.40882 16.3107 4.62166 15.7515 4.81951 15.1879C4.96119 15.7646 5.12784 16.34 5.41182 16.8667C5.00551 16.868 4.59919 16.8586 4.19287 16.868Z" fill="#BFF747"/>
<path d="M0.269213 30.3518C-0.112138 29.2422 -0.097783 27.9897 0.372821 26.9094C0.898973 26.9088 1.42513 26.9119 1.9519 26.9081C2.43374 27.6427 3.06787 28.278 3.81497 28.7417C4.64258 29.2641 5.62998 29.5106 6.60551 29.4806C6.16799 30.8524 5.6512 32.1991 5.18808 33.5628C4.28994 33.6252 3.34686 33.5097 2.55482 33.0566C1.49565 32.475 0.67553 31.4871 0.269213 30.3518Z" fill="#BFF747"/>
<path d="M2.85571 26.9125C4.4117 26.9044 5.96769 26.9119 7.5243 26.9107C7.31397 27.5272 7.08553 28.1376 6.87832 28.7548C6.50008 28.7735 6.12248 28.7311 5.74799 28.6862C4.59021 28.5239 3.57597 27.8087 2.85571 26.9125Z" fill="#BFF747"/>
</svg>
